<?xml version="1.0" standalone="no"?>
<!DOCTYPE svg PUBLIC "-//W3C//DTD SVG 20010904//EN"
 "http://www.w3.org/TR/2001/REC-SVG-20010904/DTD/svg10.dtd">
<svg version="1.0" xmlns="http://www.w3.org/2000/svg"
 width="709.000000pt" height="1024.000000pt" viewBox="0 0 709.000000 1024.000000"
 preserveAspectRatio="xMidYMid meet">

<g transform="translate(0.000000,1024.000000) scale(0.100000,-0.100000)"
fill="#000000" stroke="none">
<path d="M487 10113 c-4 -3 -7 -1387 -7 -3075 l0 -3068 3075 0 3075 0 0 3075
0 3075 -3068 0 c-1688 0 -3072 -3 -3075 -7z m5681 -3071 l-3 -2607 -1398 -3
c-788 -1 -1397 2 -1395 7 3 7 484 518 802 851 61 63 149 156 196 205 443 464
893 945 967 1035 12 14 53 63 92 108 68 80 151 184 234 296 33 44 169 246 191
284 6 9 -52 12 -277 12 l-284 0 -59 -76 c-143 -184 -374 -448 -725 -825 -13
-14 -98 -106 -189 -205 -91 -98 -172 -186 -181 -194 -9 -8 -65 -69 -124 -135
-60 -66 -145 -158 -190 -205 -44 -47 -130 -139 -190 -205 -61 -66 -142 -153
-181 -195 -38 -41 -124 -133 -189 -205 -65 -71 -171 -186 -235 -255 -64 -69
-152 -164 -196 -212 l-79 -87 -472 -1 c-436 0 -498 3 -464 25 5 3 31 33 56 68
130 173 568 659 1235 1372 41 44 125 134 185 200 61 66 142 154 180 195 39 41
120 129 181 195 61 66 173 188 250 270 187 203 341 370 394 428 l43 47 -1697
0 -1696 0 0 1213 0 1212 2610 -3 2610 -2 -2 -2608z m-2930 -302 c-3 -9 -327
-363 -513 -560 -49 -52 -135 -144 -190 -204 -55 -60 -105 -114 -110 -120 -217
-231 -464 -499 -585 -636 -47 -52 -87 -97 -90 -100 -3 -3 -49 -57 -101 -120
-129 -155 -270 -344 -349 -467 l-65 -102 -142 0 -143 -1 0 1160 0 1160 1146 0
c729 0 1144 -3 1142 -10z"/>
<path d="M4395 9554 c-432 -43 -757 -193 -1038 -478 -303 -308 -471 -704 -490
-1151 l-2 -60 234 -3 c129 -1 238 1 242 5 4 5 12 55 18 113 60 565 424 994
915 1079 278 49 558 10 762 -104 260 -145 451 -381 519 -641 45 -170 45 -320
-2 -576 l-5 -28 245 0 c151 0 248 4 252 10 19 30 37 255 32 395 -8 237 -49
401 -152 610 -212 430 -601 723 -1075 806 -110 19 -364 32 -455 23z"/>
<path d="M1432 3100 c-245 -31 -467 -144 -646 -330 -167 -173 -263 -362 -302
-592 -24 -143 -15 -346 20 -480 84 -316 300 -582 590 -723 178 -87 234 -99
471 -99 189 0 205 2 288 27 190 59 328 142 475 287 l92 92 0 -181 0 -181 135
0 135 0 0 1065 0 1065 -135 0 -135 0 -2 -191 -3 -192 -63 76 c-146 177 -352
301 -567 342 -96 19 -265 25 -353 15z m356 -280 c323 -77 568 -338 633 -671
20 -103 16 -280 -9 -382 -82 -334 -329 -566 -672 -631 -268 -51 -549 39 -737
238 -85 89 -125 146 -168 240 -52 111 -75 208 -82 331 -20 403 246 771 629
870 123 32 286 34 406 5z"/>
<path d="M3934 3095 c-137 -30 -278 -126 -387 -265 l-62 -79 -3 150 -3 149
-139 0 -140 0 0 -1065 0 -1065 140 0 140 0 0 458 c1 738 20 962 100 1139 106
234 315 366 489 309 27 -9 54 -16 60 -16 15 0 144 208 138 224 -10 26 -177 77
-246 75 -14 0 -53 -7 -87 -14z"/>
<path d="M5390 3100 c-235 -25 -444 -122 -622 -289 -298 -279 -412 -655 -329
-1078 62 -311 293 -609 586 -755 158 -80 289 -109 480 -109 309 0 554 105 778
334 l77 79 0 -571 0 -571 135 0 135 0 0 1455 0 1455 -135 0 -135 0 -2 -190 -3
-190 -68 80 c-147 174 -339 289 -557 335 -87 18 -247 25 -340 15z m365 -284
c94 -25 233 -99 310 -163 209 -176 307 -393 306 -679 -1 -178 -24 -275 -103
-427 -56 -107 -187 -242 -303 -309 -239 -138 -527 -154 -772 -42 -180 81 -314
214 -408 402 -89 178 -115 368 -77 554 24 115 97 278 166 367 113 146 280 255
464 301 96 24 321 22 417 -4z"/>
</g>
</svg>
