<?xml version="1.0" encoding="UTF-8"?>
<svg width="700pt" height="700pt" version="1.1" viewBox="0 0 700 700" xmlns="http://www.w3.org/2000/svg" xmlns:xlink="http://www.w3.org/1999/xlink">
 <defs>
  <symbol id="t" overflow="visible">
   <path d="m18.766-1.125c-0.96875 0.5-1.9805 0.875-3.0312 1.125-1.043 0.25781-2.1367 0.39062-3.2812 0.39062-3.3984 0-6.0898-0.94531-8.0781-2.8438-1.9922-1.9062-2.9844-4.4844-2.9844-7.7344 0-3.2578 0.99219-5.8359 2.9844-7.7344 1.9883-1.9062 4.6797-2.8594 8.0781-2.8594 1.1445 0 2.2383 0.13281 3.2812 0.39062 1.0508 0.25 2.0625 0.625 3.0312 1.125v4.2188c-0.98047-0.65625-1.9453-1.1406-2.8906-1.4531-0.94922-0.3125-1.9492-0.46875-3-0.46875-1.875 0-3.3516 0.60547-4.4219 1.8125-1.0742 1.1992-1.6094 2.8555-1.6094 4.9688 0 2.1055 0.53516 3.7617 1.6094 4.9688 1.0703 1.1992 2.5469 1.7969 4.4219 1.7969 1.0508 0 2.0508-0.14844 3-0.45312 0.94531-0.3125 1.9102-0.80078 2.8906-1.4688z"/>
  </symbol>
  <symbol id="e" overflow="visible">
   <path d="m13.734-11.141c-0.4375-0.19531-0.87109-0.34375-1.2969-0.4375-0.41797-0.10156-0.83984-0.15625-1.2656-0.15625-1.2617 0-2.2305 0.40625-2.9062 1.2188-0.67969 0.80469-1.0156 1.9531-1.0156 3.4531v7.0625h-4.8906v-15.312h4.8906v2.5156c0.625-1 1.3438-1.7266 2.1562-2.1875 0.82031-0.46875 1.8008-0.70312 2.9375-0.70312 0.16406 0 0.34375 0.011719 0.53125 0.03125 0.19531 0.011719 0.47656 0.039062 0.84375 0.078125z"/>
  </symbol>
  <symbol id="a" overflow="visible">
   <path d="m17.641-7.7031v1.4062h-11.453c0.125 1.1484 0.53906 2.0078 1.25 2.5781 0.70703 0.57422 1.7031 0.85938 2.9844 0.85938 1.0312 0 2.082-0.14844 3.1562-0.45312 1.082-0.3125 2.1914-0.77344 3.3281-1.3906v3.7656c-1.1562 0.4375-2.3125 0.76562-3.4688 0.98438-1.1562 0.22656-2.3125 0.34375-3.4688 0.34375-2.7734 0-4.9297-0.70312-6.4688-2.1094-1.5312-1.4062-2.2969-3.3789-2.2969-5.9219 0-2.5 0.75391-4.4609 2.2656-5.8906 1.5078-1.4375 3.582-2.1562 6.2188-2.1562 2.4062 0 4.332 0.73047 5.7812 2.1875 1.4453 1.4492 2.1719 3.3828 2.1719 5.7969zm-5.0312-1.625c0-0.92578-0.27344-1.6719-0.8125-2.2344-0.54297-0.57031-1.25-0.85938-2.125-0.85938-0.94922 0-1.7188 0.26562-2.3125 0.79688s-0.96484 1.2969-1.1094 2.2969z"/>
  </symbol>
  <symbol id="d" overflow="visible">
   <path d="m9.2188-6.8906c-1.0234 0-1.793 0.17188-2.3125 0.51562-0.51172 0.34375-0.76562 0.85547-0.76562 1.5312 0 0.625 0.20703 1.1172 0.625 1.4688 0.41406 0.34375 0.98828 0.51562 1.7188 0.51562 0.92578 0 1.7031-0.32812 2.3281-0.98438 0.63281-0.66406 0.95312-1.4922 0.95312-2.4844v-0.5625zm7.4688-1.8438v8.7344h-4.9219v-2.2656c-0.65625 0.92969-1.3984 1.6055-2.2188 2.0312-0.82422 0.41406-1.8242 0.625-3 0.625-1.5859 0-2.8711-0.45703-3.8594-1.375-0.99219-0.92578-1.4844-2.1289-1.4844-3.6094 0-1.7891 0.61328-3.1016 1.8438-3.9375 1.2383-0.84375 3.1797-1.2656 5.8281-1.2656h2.8906v-0.39062c0-0.76953-0.30859-1.332-0.92188-1.6875-0.61719-0.36328-1.5703-0.54688-2.8594-0.54688-1.0547 0-2.0312 0.10547-2.9375 0.3125-0.89844 0.21094-1.7305 0.52344-2.5 0.9375v-3.7344c1.0391-0.25 2.0859-0.44141 3.1406-0.57812 1.0625-0.13281 2.125-0.20312 3.1875-0.20312 2.7578 0 4.75 0.54688 5.9688 1.6406 1.2266 1.0859 1.8438 2.8555 1.8438 5.3125z"/>
  </symbol>
  <symbol id="c" overflow="visible">
   <path d="m7.7031-19.656v4.3438h5.0469v3.5h-5.0469v6.5c0 0.71094 0.14062 1.1875 0.42188 1.4375s0.83594 0.375 1.6719 0.375h2.5156v3.5h-4.1875c-1.9375 0-3.3125-0.39844-4.125-1.2031-0.80469-0.8125-1.2031-2.1797-1.2031-4.1094v-6.5h-2.4219v-3.5h2.4219v-4.3438z"/>
  </symbol>
  <symbol id="b" overflow="visible">
   <path d="m12.766-13.078v-8.2031h4.9219v21.281h-4.9219v-2.2188c-0.66797 0.90625-1.4062 1.5703-2.2188 1.9844s-1.7578 0.625-2.8281 0.625c-1.8867 0-3.4336-0.75-4.6406-2.25-1.2109-1.5-1.8125-3.4258-1.8125-5.7812 0-2.3633 0.60156-4.2969 1.8125-5.7969 1.207-1.5 2.7539-2.25 4.6406-2.25 1.0625 0 2 0.21484 2.8125 0.64062 0.82031 0.42969 1.5664 1.0859 2.2344 1.9688zm-3.2188 9.9219c1.0391 0 1.8359-0.37891 2.3906-1.1406 0.55078-0.76953 0.82812-1.8828 0.82812-3.3438 0-1.457-0.27734-2.5664-0.82812-3.3281-0.55469-0.76953-1.3516-1.1562-2.3906-1.1562-1.043 0-1.8398 0.38672-2.3906 1.1562-0.55469 0.76172-0.82812 1.8711-0.82812 3.3281 0 1.4609 0.27344 2.5742 0.82812 3.3438 0.55078 0.76172 1.3477 1.1406 2.3906 1.1406z"/>
  </symbol>
  <symbol id="i" overflow="visible">
   <path d="m10.5-3.1562c1.0508 0 1.8516-0.37891 2.4062-1.1406 0.55078-0.76953 0.82812-1.8828 0.82812-3.3438 0-1.457-0.27734-2.5664-0.82812-3.3281-0.55469-0.76953-1.3555-1.1562-2.4062-1.1562-1.0547 0-1.8594 0.38672-2.4219 1.1562-0.55469 0.77344-0.82812 1.8828-0.82812 3.3281 0 1.4492 0.27344 2.5586 0.82812 3.3281 0.5625 0.77344 1.3672 1.1562 2.4219 1.1562zm-3.25-9.9219c0.67578-0.88281 1.4219-1.5391 2.2344-1.9688 0.82031-0.42578 1.7656-0.64062 2.8281-0.64062 1.8945 0 3.4453 0.75 4.6562 2.25 1.207 1.5 1.8125 3.4336 1.8125 5.7969 0 2.3555-0.60547 4.2812-1.8125 5.7812-1.2109 1.5-2.7617 2.25-4.6562 2.25-1.0625 0-2.0078-0.21094-2.8281-0.625-0.8125-0.42578-1.5586-1.0859-2.2344-1.9844v2.2188h-4.8906v-21.281h4.8906z"/>
  </symbol>
  <symbol id="h" overflow="visible">
   <path d="m0.34375-15.312h4.8906l4.125 10.391 3.5-10.391h4.8906l-6.4375 16.766c-0.64844 1.6953-1.4023 2.8828-2.2656 3.5625-0.86719 0.6875-2 1.0312-3.4062 1.0312h-2.8438v-3.2188h1.5312c0.83203 0 1.4375-0.13672 1.8125-0.40625 0.38281-0.26172 0.67969-0.73047 0.89062-1.4062l0.14062-0.42188z"/>
  </symbol>
  <symbol id="g" overflow="visible">
   <path d="m2.5781-20.406h6.6875l4.6562 10.922 4.6719-10.922h6.6875v20.406h-4.9844v-14.938l-4.7031 11.016h-3.3281l-4.7031-11.016v14.938h-4.9844z"/>
  </symbol>
  <symbol id="s" overflow="visible">
   <path d="m6.2188-7.8281-5.5156-7.4844h5.1719l3.1406 4.5312 3.1719-4.5312h5.1719l-5.5156 7.4531 5.7969 7.8594h-5.1875l-3.4375-4.8438-3.4062 4.8438h-5.1875z"/>
  </symbol>
  <symbol id="r" overflow="visible">
   <path d="m12.422-21.281v3.2188h-2.7031c-0.6875 0-1.1719 0.125-1.4531 0.375-0.27344 0.25-0.40625 0.6875-0.40625 1.3125v1.0625h4.1875v3.5h-4.1875v11.812h-4.8906v-11.812h-2.4375v-3.5h2.4375v-1.0625c0-1.6641 0.46094-2.8984 1.3906-3.7031 0.92578-0.80078 2.3672-1.2031 4.3281-1.2031z"/>
  </symbol>
  <symbol id="f" overflow="visible">
   <path d="m9.6406-12.188c-1.0859 0-1.9141 0.39062-2.4844 1.1719-0.57422 0.78125-0.85938 1.9062-0.85938 3.375s0.28516 2.5938 0.85938 3.375c0.57031 0.77344 1.3984 1.1562 2.4844 1.1562 1.0625 0 1.875-0.38281 2.4375-1.1562 0.57031-0.78125 0.85938-1.9062 0.85938-3.375s-0.28906-2.5938-0.85938-3.375c-0.5625-0.78125-1.375-1.1719-2.4375-1.1719zm0-3.5c2.6328 0 4.6914 0.71484 6.1719 2.1406 1.4766 1.418 2.2188 3.3867 2.2188 5.9062 0 2.5117-0.74219 4.4805-2.2188 5.9062-1.4805 1.418-3.5391 2.125-6.1719 2.125-2.6484 0-4.7148-0.70703-6.2031-2.125-1.4922-1.4258-2.2344-3.3945-2.2344-5.9062 0-2.5195 0.74219-4.4883 2.2344-5.9062 1.4883-1.4258 3.5547-2.1406 6.2031-2.1406z"/>
  </symbol>
  <symbol id="q" overflow="visible">
   <path d="m16.547-12.766c0.61328-0.94531 1.3477-1.6719 2.2031-2.1719 0.85156-0.5 1.7891-0.75 2.8125-0.75 1.7578 0 3.0977 0.54688 4.0156 1.6406 0.92578 1.0859 1.3906 2.6562 1.3906 4.7188v9.3281h-4.9219v-7.9844-0.35938c0.007813-0.13281 0.015625-0.32031 0.015625-0.5625 0-1.082-0.16406-1.8633-0.48438-2.3438-0.3125-0.48828-0.82422-0.73438-1.5312-0.73438-0.92969 0-1.6484 0.38672-2.1562 1.1562-0.51172 0.76172-0.77344 1.8672-0.78125 3.3125v7.5156h-4.9219v-7.9844c0-1.6953-0.14844-2.7852-0.4375-3.2656-0.29297-0.48828-0.8125-0.73438-1.5625-0.73438-0.9375 0-1.6641 0.38672-2.1719 1.1562-0.51172 0.76172-0.76562 1.8594-0.76562 3.2969v7.5312h-4.9219v-15.312h4.9219v2.2344c0.60156-0.86328 1.2891-1.5156 2.0625-1.9531 0.78125-0.4375 1.6406-0.65625 2.5781-0.65625 1.0625 0 2 0.25781 2.8125 0.76562 0.8125 0.51172 1.4258 1.2305 1.8438 2.1562z"/>
  </symbol>
  <symbol id="p" overflow="visible">
   <path d="m17.75-9.3281v9.3281h-4.9219v-7.1094c0-1.3438-0.03125-2.2656-0.09375-2.7656s-0.16797-0.86719-0.3125-1.1094c-0.1875-0.3125-0.44922-0.55469-0.78125-0.73438-0.32422-0.17578-0.69531-0.26562-1.1094-0.26562-1.0234 0-1.8242 0.39844-2.4062 1.1875-0.58594 0.78125-0.875 1.8711-0.875 3.2656v7.5312h-4.8906v-21.281h4.8906v8.2031c0.73828-0.88281 1.5195-1.5391 2.3438-1.9688 0.83203-0.42578 1.75-0.64062 2.75-0.64062 1.7695 0 3.1133 0.54688 4.0312 1.6406 0.91406 1.0859 1.375 2.6562 1.375 4.7188z"/>
  </symbol>
  <symbol id="o" overflow="visible">
   <path d="m2.5781-20.406h5.875l7.4219 14v-14h4.9844v20.406h-5.875l-7.4219-14v14h-4.9844z"/>
  </symbol>
  <symbol id="n" overflow="visible">
   <path d="m2.1875-5.9688v-9.3438h4.9219v1.5312c0 0.83594-0.007813 1.875-0.015625 3.125-0.011719 1.25-0.015625 2.0859-0.015625 2.5 0 1.2422 0.03125 2.1328 0.09375 2.6719 0.070313 0.54297 0.17969 0.93359 0.32812 1.1719 0.20703 0.32422 0.47266 0.57422 0.79688 0.75 0.32031 0.16797 0.69141 0.25 1.1094 0.25 1.0195 0 1.8203-0.39062 2.4062-1.1719 0.58203-0.78125 0.875-1.8672 0.875-3.2656v-7.5625h4.8906v15.312h-4.8906v-2.2188c-0.74219 0.89844-1.5234 1.5586-2.3438 1.9844-0.82422 0.41406-1.7344 0.625-2.7344 0.625-1.7617 0-3.1055-0.53906-4.0312-1.625-0.92969-1.082-1.3906-2.6602-1.3906-4.7344z"/>
  </symbol>
  <symbol id="m" overflow="visible">
   <path d="m17.75-9.3281v9.3281h-4.9219v-7.1406c0-1.3203-0.03125-2.2344-0.09375-2.7344s-0.16797-0.86719-0.3125-1.1094c-0.1875-0.3125-0.44922-0.55469-0.78125-0.73438-0.32422-0.17578-0.69531-0.26562-1.1094-0.26562-1.0234 0-1.8242 0.39844-2.4062 1.1875-0.58594 0.78125-0.875 1.8711-0.875 3.2656v7.5312h-4.8906v-15.312h4.8906v2.2344c0.73828-0.88281 1.5195-1.5391 2.3438-1.9688 0.83203-0.42578 1.75-0.64062 2.75-0.64062 1.7695 0 3.1133 0.54688 4.0312 1.6406 0.91406 1.0859 1.375 2.6562 1.375 4.7188z"/>
  </symbol>
  <symbol id="l" overflow="visible">
   <path d="m2.5781-20.406h8.7344c2.5938 0 4.582 0.57812 5.9688 1.7344 1.3945 1.1484 2.0938 2.7891 2.0938 4.9219 0 2.1367-0.69922 3.7812-2.0938 4.9375-1.3867 1.1562-3.375 1.7344-5.9688 1.7344h-3.4844v7.0781h-5.25zm5.25 3.8125v5.7031h2.9219c1.0195 0 1.8047-0.25 2.3594-0.75 0.5625-0.5 0.84375-1.2031 0.84375-2.1094 0-0.91406-0.28125-1.6172-0.84375-2.1094-0.55469-0.48828-1.3398-0.73438-2.3594-0.73438z"/>
  </symbol>
  <symbol id="k" overflow="visible">
   <path d="m2.3594-15.312h4.8906v15.031c0 2.0508-0.49609 3.6172-1.4844 4.7031-0.98047 1.082-2.4062 1.625-4.2812 1.625h-2.4219v-3.2188h0.85938c0.92578 0 1.5625-0.21094 1.9062-0.625 0.35156-0.41797 0.53125-1.2461 0.53125-2.4844zm0-5.9688h4.8906v4h-4.8906z"/>
  </symbol>
  <symbol id="j" overflow="visible">
   <path d="m14.719-14.828v3.9844c-0.65625-0.45703-1.3242-0.79688-2-1.0156-0.66797-0.21875-1.3594-0.32812-2.0781-0.32812-1.3672 0-2.4336 0.40234-3.2031 1.2031-0.76172 0.79297-1.1406 1.9062-1.1406 3.3438 0 1.4297 0.37891 2.543 1.1406 3.3438 0.76953 0.79297 1.8359 1.1875 3.2031 1.1875 0.75781 0 1.4844-0.10938 2.1719-0.32812 0.6875-0.22656 1.3203-0.56641 1.9062-1.0156v4c-0.76172 0.28125-1.5391 0.48828-2.3281 0.625-0.78125 0.14453-1.5742 0.21875-2.375 0.21875-2.7617 0-4.9219-0.70703-6.4844-2.125-1.5547-1.4141-2.3281-3.3828-2.3281-5.9062 0-2.5312 0.77344-4.5039 2.3281-5.9219 1.5625-1.4141 3.7227-2.125 6.4844-2.125 0.80078 0 1.5938 0.074219 2.375 0.21875 0.78125 0.13672 1.5547 0.35156 2.3281 0.64062z"/>
  </symbol>
 </defs>
 <g>
  <path d="m349.64 392.23c62.078 0 112.59-50.504 112.59-112.59s-50.508-112.59-112.59-112.59c-62.082 0-112.59 50.504-112.59 112.59s50.508 112.59 112.59 112.59zm-61.977-32.527c0.45703-27.043 17.977-50.375 43.93-58.262 2.1602-0.65625 3.7148-2.543 3.9414-4.7891 0.23047-2.2461-0.91016-4.4062-2.8945-5.4844-12.379-6.7383-20.066-19.672-20.066-33.754 0-21.176 17.227-38.402 38.402-38.402s38.402 17.227 38.402 38.402c0 14.496-8.0586 27.613-21.027 34.219-2.0156 1.0234-3.2148 3.1562-3.043 5.4102 0.16797 2.2539 1.6797 4.1836 3.8242 4.8945 25.09 8.3086 42.027 31.441 42.48 57.766-17.16 13.312-38.625 21.328-61.977 21.328-23.344 0-44.812-8.0156-61.973-21.328zm61.977-181.45c55.906 0 101.39 45.484 101.39 101.39 0 27.512-11.051 52.461-28.902 70.746-3.3672-23.641-18.074-44.133-39.379-54.898 11.203-9.3008 17.84-23.117 17.84-38.078 0-27.348-22.254-49.602-49.602-49.602-27.348 0-49.602 22.254-49.602 49.602 0 14.426 6.25 27.918 16.809 37.219-22.262 10.5-37.609 31.348-41.035 55.754-17.848-18.285-28.898-43.234-28.898-70.742-0.003907-55.902 45.48-101.39 101.38-101.39z"/>
  <path d="m385.65 91.488c0-19.57-15.992-35.488-35.652-35.488s-35.652 15.918-35.652 35.488c0 19.562 15.992 35.48 35.652 35.48s35.652-15.922 35.652-35.48zm-60.105 0c0-13.395 10.969-24.289 24.453-24.289s24.453 10.895 24.453 24.285c0 13.387-10.969 24.281-24.453 24.281-13.484 0.003906-24.453-10.891-24.453-24.277z"/>
  <path d="m216.87 111.13h-0.10547c-9.4922 0.027344-18.43 3.7461-25.16 10.477s-10.449 15.664-10.477 25.16c-0.027344 9.5039 3.6523 18.434 10.359 25.141 6.6836 6.6836 15.57 10.359 25.035 10.359h0.10547c9.4922-0.027344 18.43-3.7461 25.16-10.477 6.7305-6.7266 10.453-15.664 10.477-25.16 0.027344-9.5039-3.6523-18.434-10.359-25.141-6.6797-6.6836-15.566-10.359-25.035-10.359zm17 52.742c-9.5391 9.5391-24.996 9.582-34.461 0.12109-4.582-4.582-7.0977-10.688-7.0781-17.195 0.019531-6.5117 2.5742-12.648 7.1953-17.27 4.7891-4.7891 11.074-7.1875 17.344-7.1875 6.2109 0 12.41 2.3516 17.121 7.0664 4.582 4.582 7.0938 10.688 7.0781 17.195-0.019531 6.5117-2.5742 12.648-7.1992 17.27z"/>
  <path d="m126 280c0 19.66 15.918 35.652 35.484 35.652s35.484-15.992 35.484-35.652-15.918-35.652-35.488-35.652c-19.562 0-35.48 15.992-35.48 35.652zm59.77 0c0 13.48-10.895 24.449-24.285 24.449s-24.285-10.969-24.285-24.449 10.895-24.449 24.285-24.449 24.285 10.969 24.285 24.449z"/>
  <path d="m191.61 438.39c6.7305 6.7305 15.664 10.449 25.16 10.477h0.10547c9.4688 0 18.359-3.6758 25.039-10.359 6.707-6.7031 10.387-15.637 10.359-25.141-0.023438-9.5-3.7461-18.434-10.477-25.16-6.7305-6.7305-15.664-10.449-25.16-10.477h-0.10547c-9.4648 0-18.355 3.6758-25.035 10.359-6.707 6.7031-10.387 15.637-10.359 25.141 0.019531 9.5 3.7422 18.43 10.473 25.16zm7.8008-42.383c4.7148-4.7148 10.906-7.0664 17.121-7.0664 6.2656 0 12.555 2.3945 17.34 7.1875 4.625 4.6211 7.1797 10.758 7.1953 17.27 0.019532 6.5078-2.4922 12.609-7.0781 17.195-9.4727 9.4727-24.93 9.418-34.465-0.12109-4.6211-4.6211-7.1797-10.758-7.1953-17.27-0.015625-6.5078 2.5-12.613 7.082-17.195z"/>
  <path d="m385.65 468.51c0-19.562-15.992-35.48-35.652-35.48s-35.652 15.918-35.652 35.48c0 19.57 15.992 35.488 35.652 35.488s35.652-15.918 35.652-35.488zm-60.105 0c0-13.387 10.969-24.281 24.453-24.281s24.453 10.895 24.453 24.281c0 13.395-10.969 24.289-24.453 24.289s-24.453-10.895-24.453-24.289z"/>
  <path d="m483.37 377.73c-9.4922 0.027343-18.43 3.7461-25.16 10.477-6.7305 6.7266-10.453 15.664-10.477 25.16-0.027344 9.5039 3.6523 18.434 10.359 25.141 6.6836 6.6836 15.57 10.359 25.039 10.359h0.10547c9.4922-0.027344 18.43-3.7461 25.16-10.477 6.7305-6.7305 10.449-15.664 10.477-25.16 0.027344-9.5039-3.6523-18.434-10.359-25.141-6.6836-6.6836-15.57-10.359-25.035-10.359h-0.10938zm24.297 35.473c-0.019531 6.5117-2.5742 12.648-7.1953 17.27-9.5391 9.5391-24.996 9.5938-34.465 0.12109-4.582-4.582-7.0938-10.688-7.0781-17.195 0.015624-6.5117 2.5742-12.648 7.1953-17.27 4.7891-4.7891 11.07-7.1875 17.34-7.1875 6.2109 0 12.41 2.3555 17.121 7.0664 4.5859 4.582 7.1016 10.688 7.082 17.195z"/>
  <path d="m538.52 244.35c-19.566 0-35.488 15.992-35.488 35.652s15.918 35.652 35.488 35.652c19.566 0 35.484-15.992 35.484-35.652s-15.918-35.652-35.484-35.652zm0 60.102c-13.395 0-24.285-10.969-24.285-24.449s10.895-24.449 24.285-24.449 24.285 10.969 24.285 24.449-10.895 24.449-24.285 24.449z"/>
  <path d="m483.23 111.13h-0.10547c-9.4688 0-18.359 3.6758-25.039 10.359-6.707 6.7031-10.387 15.637-10.359 25.141 0.023438 9.5 3.7461 18.434 10.477 25.16 6.7305 6.7305 15.664 10.449 25.16 10.477h0.10547c9.4648 0 18.355-3.6758 25.035-10.359 6.707-6.7031 10.387-15.637 10.359-25.141-0.027343-9.5-3.75-18.43-10.477-25.16-6.7266-6.7305-15.66-10.449-25.156-10.477zm17.359 52.863c-9.4688 9.4648-24.926 9.4219-34.461-0.12109-4.625-4.6211-7.1797-10.758-7.1953-17.27-0.019532-6.5078 2.4922-12.609 7.0781-17.195 4.7148-4.7148 10.91-7.0664 17.121-7.0664 6.2695 0 12.555 2.3945 17.344 7.1875 4.6211 4.6211 7.1797 10.758 7.1953 17.27 0.015625 6.5078-2.5 12.613-7.082 17.195z"/>
  <path d="m438.98 120.14c0.86328 0.48047 1.8008 0.71094 2.7227 0.71094 1.9648 0 3.8711-1.0352 4.8984-2.8711 1.5078-2.7031 0.53906-6.1133-2.1641-7.6172-12.344-6.8906-25.461-12.418-38.977-16.438-2.9609-0.89063-6.082 0.79687-6.9648 3.7695-0.88281 2.9648 0.80859 6.082 3.7695 6.9609 12.734 3.7852 25.086 8.9961 36.715 15.484z"/>
  <path d="m260.81 119.53c0.89844 0 1.8125-0.21875 2.6602-0.67969 11.684-6.3203 24.102-11.375 36.91-15.008 2.9766-0.84375 4.7031-3.9375 3.8594-6.9141-0.84375-2.9766-3.9258-4.707-6.9141-3.8594-13.594 3.8555-26.777 9.2148-39.184 15.93-2.7188 1.4766-3.7305 4.8711-2.2578 7.5977 1.0078 1.8711 2.9336 2.9336 4.9258 2.9336z"/>
  <path d="m164.62 223.84c-0.88281 2.9648 0.80859 6.082 3.7695 6.9609 0.53125 0.16016 1.0703 0.23438 1.5977 0.23438 2.4102 0 4.6406-1.5703 5.3633-4.0039 3.793-12.738 9.0039-25.09 15.488-36.711 1.5078-2.7031 0.54297-6.1133-2.1602-7.6172-2.707-1.5078-6.1133-0.54688-7.6172 2.1602-6.8828 12.34-12.414 25.453-16.441 38.977z"/>
  <path d="m174.54 328.92c-0.84375-2.9688-3.9336-4.707-6.9141-3.8555-2.9766 0.84375-4.7031 3.9414-3.8594 6.918 3.8594 13.59 9.2188 26.773 15.934 39.184 1.0117 1.875 2.9375 2.9375 4.9297 2.9375 0.89844 0 1.8125-0.21875 2.6602-0.67187 2.7188-1.4727 3.7305-4.8711 2.2578-7.5898-6.3242-11.695-11.375-24.113-15.008-36.922z"/>
  <path d="m294.54 464.68c0.53125 0.16016 1.0703 0.23438 1.5977 0.23438 2.4102 0 4.6406-1.5703 5.3633-4.0039 0.88281-2.9648-0.80859-6.082-3.7695-6.9609-12.73-3.7891-25.082-9-36.711-15.488-2.7031-1.5-6.1094-0.54297-7.6211 2.1602-1.5078 2.7031-0.53906 6.1133 2.1641 7.6172 12.344 6.8906 25.461 12.422 38.977 16.441z"/>
  <path d="m401.15 465.74c0.50391 0 1.0195-0.066407 1.5312-0.21484 13.594-3.8555 26.777-9.2148 39.184-15.93 2.7188-1.4766 3.7305-4.8711 2.2578-7.5977-1.4727-2.7188-4.8711-3.7344-7.5898-2.2539-11.684 6.3203-24.102 11.375-36.91 15.008-2.9766 0.84375-4.7031 3.9375-3.8594 6.9141 0.69922 2.4648 2.9453 4.0742 5.3867 4.0742z"/>
  <path d="m531.61 327.8c-2.957-0.88672-6.082 0.79688-6.9648 3.7695-3.793 12.738-9.0039 25.09-15.488 36.711-1.5078 2.7031-0.54297 6.1133 2.1602 7.6172 0.86328 0.48047 1.8008 0.71094 2.7227 0.71094 1.9648 0 3.8711-1.0352 4.8945-2.8711 6.8867-12.336 12.418-25.453 16.445-38.977 0.88672-2.9648-0.80469-6.082-3.7695-6.9609z"/>
  <path d="m510.45 192.76c6.3242 11.691 11.375 24.113 15.008 36.918 0.69922 2.4609 2.9414 4.0703 5.3828 4.0703 0.50391 0 1.0195-0.066406 1.5312-0.21484 2.9766-0.84375 4.7031-3.9414 3.8594-6.918-3.8594-13.59-9.2188-26.773-15.934-39.184-1.4688-2.7227-4.8711-3.7227-7.5898-2.2656-2.7188 1.4766-3.7305 4.875-2.2578 7.5938z"/>
  <use x="70" y="644" xlink:href="#t"/>
  <use x="90.550781" y="644" xlink:href="#e"/>
  <use x="104.359375" y="644" xlink:href="#a"/>
  <use x="123.347656" y="644" xlink:href="#d"/>
  <use x="142.242188" y="644" xlink:href="#c"/>
  <use x="155.628906" y="644" xlink:href="#a"/>
  <use x="174.617188" y="644" xlink:href="#b"/>
  <use x="204.410156" y="644" xlink:href="#i"/>
  <use x="224.453125" y="644" xlink:href="#h"/>
  <use x="252.453125" y="644" xlink:href="#g"/>
  <use x="280.3125" y="644" xlink:href="#d"/>
  <use x="299.210938" y="644" xlink:href="#b"/>
  <use x="319.25" y="644" xlink:href="#a"/>
  <use x="347.992188" y="644" xlink:href="#s"/>
  <use x="375.796875" y="644" xlink:href="#g"/>
  <use x="403.664062" y="644" xlink:href="#d"/>
  <use x="422.554688" y="644" xlink:href="#b"/>
  <use x="442.601562" y="644" xlink:href="#a"/>
  <use x="70" y="672" xlink:href="#r"/>
  <use x="82.183594" y="672" xlink:href="#e"/>
  <use x="95.992188" y="672" xlink:href="#f"/>
  <use x="115.226562" y="672" xlink:href="#q"/>
  <use x="154.152344" y="672" xlink:href="#c"/>
  <use x="167.535156" y="672" xlink:href="#p"/>
  <use x="187.46875" y="672" xlink:href="#a"/>
  <use x="216.207031" y="672" xlink:href="#o"/>
  <use x="239.640625" y="672" xlink:href="#f"/>
  <use x="258.878906" y="672" xlink:href="#n"/>
  <use x="278.8125" y="672" xlink:href="#m"/>
  <use x="308.492188" y="672" xlink:href="#l"/>
  <use x="329.015625" y="672" xlink:href="#e"/>
  <use x="342.820312" y="672" xlink:href="#f"/>
  <use x="362.058594" y="672" xlink:href="#k"/>
  <use x="371.65625" y="672" xlink:href="#a"/>
  <use x="390.648438" y="672" xlink:href="#j"/>
  <use x="407.242188" y="672" xlink:href="#c"/>
 </g>
</svg>
